<svg id="Layer_1" data-name="Layer 1" xmlns="http://www.w3.org/2000/svg" width="36" height="36" viewBox="0 0 36 36">
  <defs>
    <style>
      .fill {
        fill: #6e6e6e;
      }
    </style>
  </defs>
  <title>S_HelpOutline_18_N@2x</title>
  <path class="fill" d="M20.18127,25.932a1.83345,1.83345,0,0,1-1.95444,2.01521A1.86185,1.86185,0,0,1,16.27145,25.932a1.95513,1.95513,0,1,1,3.90982,0ZM17.95316,8.00006a9.23221,9.23221,0,0,0-4.5182,1.0724c-.11848.06278-.11848.1843-.11848.30683v2.97112a.14919.14919,0,0,0,.23709.12152,7.38464,7.38464,0,0,1,3.74491-1.00961c1.81265,0,2.52657.76556,2.52657,1.86834,0,.94987-.56506,1.5929-1.54518,2.60353C16.8533,17.40557,15.99052,18.323,15.99052,19.763a3.41737,3.41737,0,0,0,.71392,2.11441A.488.488,0,0,0,17.09038,22h2.58581a.13062.13062,0,0,0,.11861-.21469,3.3024,3.3024,0,0,1-.47557-1.68606c0-.91747,1.09987-1.92809,2.2591-3.06226a5.4743,5.4743,0,0,0,1.90214-4.2258C23.48047,10.11549,21.51909,8.00006,17.95316,8.00006ZM35,18A17,17,0,1,1,18,1.0001,17.00005,17.00005,0,0,1,35,18Zm-3.65039,0A13.34961,13.34961,0,1,0,18,31.34953,13.34954,13.34954,0,0,0,31.34961,18Z"/>
</svg>
